<svg id="Layer_1" data-name="Layer 1" xmlns="http://www.w3.org/2000/svg" xmlns:xlink="http://www.w3.org/1999/xlink" viewBox="0 0 167 240"><defs><style>.cls-1{fill:url(#linear-gradient);}.cls-2{font-size:72px;fill:#fafafa;font-family:SegoeUI-SemiboldItalic, Segoe UI;font-weight:700;}.cls-3{font-style:italic;}.cls-4{font-size:53.17px;font-family:SegoeUI-Semibold, Segoe UI;}.cls-5{letter-spacing:-0.06em;}.cls-6{letter-spacing:0em;}</style><linearGradient id="linear-gradient" x1="34.46" y1="33.26" x2="228.56" y2="227.35" gradientUnits="userSpaceOnUse"><stop offset="0" stop-color="#9fbcff"/><stop offset="0.21" stop-color="#96b4ff"/><stop offset="0.55" stop-color="#7c9dff"/><stop offset="0.84" stop-color="#6184ff"/></linearGradient></defs><title>Sale</title><path class="cls-1" d="M203.08,248c-24.21.18-46.89-31-71.08-31-23.44,0-48.39,31-71.83,31a12.45,12.45,0,0,1-8.61-3.56A12.16,12.16,0,0,1,48,235.83V28A20,20,0,0,1,68,8H195a20,20,0,0,1,20,20V235.83A12.11,12.11,0,0,1,203.08,248Z" transform="translate(-48 -8)"/><text class="cls-2" transform="translate(12 102.5)"><tspan class="cls-3">10%</tspan><tspan class="cls-4"><tspan x="0" y="63.81">S</tspan><tspan class="cls-5" x="28.95" y="63.81">A</tspan><tspan class="cls-6" x="61.66" y="63.81">VE</tspan></tspan></text></svg>